<svg xmlns="http://www.w3.org/2000/svg" viewBox="0 0 32 32" role="img" aria-label="$8B>48709=5@">
  <rect width="32" height="32" rx="8" fill="#56764b"/>
  <path
    d="M16 6C11 6 8 11 8 16c0 5 3 10 8 10 5 0 8-5 8-10 0-5-3-10-8-10Z"
    fill="#d2e3c8"
  />
  <path
    d="M16 8v18M16 8c-3 2-5 5-5 8 0 3 2 6 5 8"
    fill="none"
    stroke="#435c3b"
    stroke-width="1.5"
    stroke-linecap="round"
  />
  <path
    d="M16 8c3 2 5 5 5 8 0 3-2 6-5 8"
    fill="none"
    stroke="#6f9462"
    stroke-width="1"
    stroke-linecap="round"
    opacity="0.7"
  />
</svg>
